<?xml version="1.0" standalone="no"?>
<!DOCTYPE svg PUBLIC "-//W3C//DTD SVG 20010904//EN"
 "http://www.w3.org/TR/2001/REC-SVG-20010904/DTD/svg10.dtd">
<svg version="1.0" xmlns="http://www.w3.org/2000/svg"
 width="2500.000000pt" height="2500.000000pt" viewBox="0 0 2500.000000 2500.000000"
 preserveAspectRatio="xMidYMid meet">
<metadata>
Created by potrace 1.14, written by Peter Selinger 2001-2017
</metadata>
<g transform="translate(0.000000,2500.000000) scale(0.100000,-0.100000)"
fill="#000000" stroke="none">
<path d="M12754 21905 c-209 -37 -373 -121 -500 -259 -117 -126 -180 -266
-203 -450 -11 -83 -10 -13721 1 -13798 47 -359 301 -617 683 -693 70 -14 296
-14 360 -1 385 81 641 349 681 713 9 83 9 13669 0 13768 -33 364 -300 645
-679 716 -88 16 -260 18 -343 4z"/>
<path d="M21870 17193 c-21 -8 -109 -48 -220 -100 -91 -43 -309 -145 -435
-203 -33 -15 -112 -52 -175 -82 -63 -30 -133 -63 -155 -73 -22 -10 -80 -37
-130 -61 -113 -53 -309 -144 -450 -209 -33 -15 -96 -44 -140 -65 -164 -78
-283 -134 -400 -187 -66 -31 -180 -84 -253 -119 -74 -35 -136 -64 -138 -64 -2
0 -70 -31 -150 -70 -81 -38 -148 -70 -150 -70 -1 0 -49 -22 -106 -49 -57 -26
-139 -65 -183 -86 -44 -20 -111 -52 -150 -70 -91 -43 -511 -239 -595 -277
-111 -51 -170 -79 -318 -150 -79 -37 -145 -68 -147 -68 -3 0 -60 -26 -127 -58
-68 -33 -141 -67 -163 -77 -22 -10 -95 -44 -163 -77 -68 -32 -125 -58 -127
-58 -2 0 -66 -30 -142 -66 -76 -36 -156 -73 -178 -82 -112 -45 -165 -114 -165
-214 0 -68 38 -149 83 -177 18 -10 1173 -590 2567 -1287 2727 -1364 2587
-1297 2672 -1264 111 44 175 154 154 264 -16 84 97 24 -2415 1281 l-2346 1172
40 20 c22 12 90 43 150 71 61 27 153 70 205 95 261 123 312 147 315 147 2 0
63 28 137 63 73 35 151 72 173 82 22 10 76 35 120 55 174 82 246 116 400 188
88 41 189 88 225 105 36 17 67 32 70 32 3 1 34 15 70 32 36 17 99 47 140 66
41 19 120 56 175 82 55 26 125 58 155 72 30 14 127 59 215 100 88 42 189 89
225 105 36 17 116 54 178 84 63 30 115 54 117 54 2 0 61 27 132 61 126 60 208
99 328 154 104 48 488 227 595 278 36 17 67 31 70 32 3 1 58 27 124 58 65 31
120 57 121 57 3 0 177 81 312 146 110 52 146 94 149 174 4 87 -63 189 -148
224 -36 16 -118 20 -148 9z"/>
<path d="M3182 12894 c-169 -35 -297 -140 -352 -289 -25 -69 -30 -168 -11
-255 6 -30 13 -64 15 -75 11 -50 39 -170 67 -282 16 -66 32 -129 34 -140 27
-120 145 -520 230 -778 100 -302 292 -807 364 -955 12 -24 21 -47 21 -51 0 -4
23 -56 50 -115 28 -60 55 -118 60 -129 48 -108 248 -505 321 -640 123 -227
129 -238 183 -328 25 -43 46 -81 46 -84 0 -4 11 -21 25 -39 14 -18 25 -35 25
-38 0 -10 235 -384 257 -411 5 -5 12 -17 15 -25 3 -8 31 -50 62 -93 31 -43 61
-88 67 -99 7 -12 16 -27 21 -32 5 -6 58 -80 118 -163 132 -186 233 -319 359
-478 111 -140 294 -360 356 -429 23 -25 123 -139 155 -176 114 -133 505 -528
711 -720 68 -63 135 -126 149 -140 14 -14 57 -52 95 -85 39 -33 76 -66 84 -73
28 -27 250 -211 361 -301 63 -51 122 -98 131 -106 34 -27 335 -252 369 -275
19 -13 37 -27 40 -30 10 -12 381 -263 520 -352 152 -97 342 -213 455 -278 217
-124 289 -164 400 -222 134 -71 472 -239 583 -289 34 -16 92 -43 129 -60 74
-34 314 -135 468 -197 181 -73 447 -170 640 -232 105 -34 199 -66 210 -70 48
-19 570 -166 625 -176 14 -3 48 -11 76 -19 28 -8 84 -22 125 -30 41 -9 81 -18
89 -20 8 -1 33 -8 55 -14 22 -5 56 -13 75 -16 19 -4 40 -8 45 -9 13 -4 76 -16
95 -20 8 -1 40 -8 70 -14 65 -14 104 -21 145 -28 17 -3 41 -7 55 -10 142 -24
270 -46 290 -49 14 -2 54 -8 90 -14 36 -6 83 -13 105 -15 22 -3 56 -8 75 -10
58 -9 271 -35 330 -41 30 -3 71 -7 90 -10 19 -3 67 -7 105 -10 98 -8 184 -15
225 -20 32 -4 98 -8 330 -21 204 -11 577 -12 624 -2 160 34 282 164 311 333
28 164 -15 315 -120 414 -103 97 -148 108 -480 117 -143 3 -282 7 -310 9 -128
6 -294 16 -335 20 -25 2 -79 6 -120 9 -41 4 -91 8 -110 11 -19 2 -62 6 -95 10
-33 3 -76 7 -95 9 -19 3 -55 7 -80 10 -81 10 -340 46 -363 51 -12 2 -40 7 -62
10 -125 17 -399 70 -635 121 -63 14 -124 27 -135 30 -55 11 -450 114 -565 147
-82 24 -114 34 -320 99 -157 50 -468 159 -540 188 -25 10 -76 31 -115 45 -38
15 -79 30 -90 35 -11 5 -92 39 -180 75 -531 221 -1140 537 -1635 849 -91 58
-432 286 -510 341 -36 25 -76 54 -90 63 -14 9 -29 20 -35 25 -5 4 -71 54 -146
110 -134 101 -359 276 -369 287 -3 3 -32 28 -65 55 -88 73 -263 223 -315 271
-233 211 -572 542 -696 679 -15 17 -54 59 -88 95 -34 36 -86 94 -116 129 -30
35 -62 71 -71 80 -57 59 -401 481 -492 606 -20 28 -42 56 -49 64 -7 8 -65 89
-130 180 -64 91 -121 171 -125 176 -33 41 -383 590 -383 600 0 3 -104 180
-120 205 -6 8 -13 22 -17 30 -4 8 -40 76 -81 150 -78 142 -295 579 -355 715
-35 79 -97 224 -162 380 -57 137 -205 535 -219 590 -2 6 -6 17 -9 25 -12 30
-119 372 -130 415 -3 11 -17 58 -30 105 -43 142 -120 439 -143 549 -60 285
-96 394 -148 452 -89 101 -237 145 -384 113z"/>
</g>
</svg>
